<?xml version="1.0" encoding="UTF-8" standalone="no"?>
<svg
   xmlns:dc="http://purl.org/dc/elements/1.1/"
   xmlns:cc="http://creativecommons.org/ns#"
   xmlns:rdf="http://www.w3.org/1999/02/22-rdf-syntax-ns#"
   xmlns:svg="http://www.w3.org/2000/svg"
   xmlns="http://www.w3.org/2000/svg"
   xmlns:sodipodi="http://sodipodi.sourceforge.net/DTD/sodipodi-0.dtd"
   xmlns:inkscape="http://www.inkscape.org/namespaces/inkscape"
   version="1.1"
   id="Layer_1"
   x="0px"
   y="0px"
   viewBox="0 0 439 114"
   style="enable-background:new 0 0 439 114;"
   xml:space="preserve"
   sodipodi:docname="tvtclogo4.svg"
   inkscape:version="1.0.2 (e86c8708, 2021-01-15)"><metadata
   id="metadata1036"><rdf:RDF><cc:Work
       rdf:about=""><dc:format>image/svg+xml</dc:format><dc:type
         rdf:resource="http://purl.org/dc/dcmitype/StillImage" /><dc:title></dc:title></cc:Work></rdf:RDF></metadata><defs
   id="defs1034" /><sodipodi:namedview
   pagecolor="#ffffff"
   bordercolor="#666666"
   borderopacity="1"
   objecttolerance="10"
   gridtolerance="10"
   guidetolerance="10"
   inkscape:pageopacity="0"
   inkscape:pageshadow="2"
   inkscape:window-width="1366"
   inkscape:window-height="715"
   id="namedview1032"
   showgrid="false"
   inkscape:zoom="1.4077449"
   inkscape:cx="224.85599"
   inkscape:cy="58.420712"
   inkscape:window-x="0"
   inkscape:window-y="25"
   inkscape:window-maximized="1"
   inkscape:current-layer="Layer_1"
   showborder="true" />
<style
   type="text/css"
   id="style833">
	.st0{fill:#404040;}
	.st1{fill:#404041;}
	.st2{fill:#AAD7AD;}
	.st3{fill:#4F8DA7;}
	.st4{fill:#1FBAB3;}
	.st5{fill:#047E79;}
	.st6{fill:#00BCCC;}
</style>
<g
   id="g989"
   style="mix-blend-mode:normal"
   transform="translate(0,-33.548282)">
	<g
   id="g917">
		<path
   class="st0"
   d="M 8.12,69.15 H 4.33 v -1.23 h 8.89 v 1.23 H 9.47 V 80.23 H 8.12 Z"
   id="path835" />
		<path
   class="st0"
   d="m 13.39,79.35 c -0.56,-0.7 -0.84,-1.82 -0.84,-3.33 0,-1.65 0.3,-2.87 0.91,-3.67 0.6,-0.79 1.55,-1.19 2.85,-1.19 1.19,0 2.07,0.34 2.66,1.02 0.59,0.68 0.88,1.73 0.88,3.14 l -0.07,1.01 H 13.9 c 0,0.74 0.08,1.31 0.24,1.73 0.16,0.41 0.43,0.71 0.82,0.9 0.38,0.18 0.92,0.28 1.61,0.28 0.34,0 0.74,-0.01 1.19,-0.03 0.45,-0.02 0.86,-0.04 1.23,-0.08 l 0.52,-0.05 0.04,1.05 c -1.32,0.19 -2.41,0.28 -3.27,0.28 -1.37,0 -2.32,-0.35 -2.89,-1.06 z m 5.12,-4.08 c 0,-1.08 -0.17,-1.85 -0.52,-2.3 -0.34,-0.46 -0.91,-0.68 -1.69,-0.68 -0.82,0 -1.42,0.24 -1.82,0.72 -0.39,0.48 -0.59,1.24 -0.6,2.27 h 4.63 z"
   id="path837" />
		<path
   class="st0"
   d="m 22.83,79.94 c -0.52,-0.31 -0.9,-0.81 -1.12,-1.48 -0.23,-0.67 -0.34,-1.56 -0.34,-2.68 0,-1.41 0.24,-2.54 0.71,-3.38 0.47,-0.84 1.39,-1.26 2.76,-1.26 0.36,0 0.72,0.02 1.1,0.05 0.38,0.04 0.9,0.11 1.55,0.23 l -0.05,1.09 c -0.94,-0.11 -1.65,-0.16 -2.15,-0.16 -0.68,0 -1.19,0.1 -1.56,0.31 -0.36,0.21 -0.62,0.56 -0.76,1.05 -0.14,0.49 -0.22,1.19 -0.22,2.11 0,0.87 0.07,1.54 0.21,2.02 0.14,0.48 0.4,0.83 0.77,1.05 0.37,0.22 0.92,0.33 1.63,0.33 l 2.1,-0.16 0.05,1.1 c -1.14,0.17 -1.99,0.25 -2.56,0.25 -0.89,0 -1.6,-0.16 -2.12,-0.47 z"
   id="path839" />
		<path
   class="st0"
   d="m 29.33,67.46 h 1.33 v 4.38 c 0.52,-0.24 1.01,-0.41 1.45,-0.52 0.44,-0.11 0.9,-0.16 1.36,-0.16 0.77,0 1.37,0.14 1.79,0.42 0.42,0.28 0.72,0.73 0.89,1.36 0.17,0.63 0.26,1.49 0.26,2.6 v 4.7 h -1.33 v -4.66 c 0,-0.88 -0.05,-1.54 -0.15,-1.98 -0.1,-0.44 -0.29,-0.76 -0.57,-0.95 -0.28,-0.19 -0.69,-0.29 -1.24,-0.29 -0.68,0 -1.38,0.14 -2.12,0.41 l -0.34,0.13 v 7.35 h -1.33 z"
   id="path841" />
		<path
   class="st0"
   d="m 38.7,71.34 h 1.32 v 0.62 c 0.53,-0.3 1.02,-0.5 1.47,-0.62 0.44,-0.12 0.91,-0.18 1.4,-0.18 0.76,0 1.35,0.14 1.76,0.43 0.42,0.29 0.71,0.74 0.88,1.36 0.17,0.62 0.26,1.49 0.26,2.59 v 4.7 h -1.32 v -4.66 c 0,-0.84 -0.05,-1.49 -0.15,-1.94 -0.1,-0.45 -0.28,-0.78 -0.54,-0.98 -0.26,-0.2 -0.64,-0.3 -1.14,-0.3 -0.4,0 -0.82,0.05 -1.24,0.15 -0.42,0.1 -0.76,0.22 -1.02,0.35 l -0.34,0.16 v 7.22 H 38.7 Z"
   id="path843" />
		<path
   class="st0"
   d="m 48.08,67.78 h 1.32 v 1.55 h -1.32 z m 0,3.56 h 1.32 v 8.9 h -1.32 z"
   id="path845" />
		<path
   class="st0"
   d="m 52.75,79.94 c -0.52,-0.31 -0.9,-0.81 -1.12,-1.48 -0.23,-0.67 -0.34,-1.56 -0.34,-2.68 0,-1.41 0.24,-2.54 0.71,-3.38 0.47,-0.84 1.39,-1.26 2.76,-1.26 0.36,0 0.72,0.02 1.1,0.05 0.38,0.04 0.9,0.11 1.55,0.23 l -0.05,1.09 c -0.94,-0.11 -1.65,-0.16 -2.15,-0.16 -0.68,0 -1.19,0.1 -1.56,0.31 -0.36,0.21 -0.62,0.56 -0.77,1.05 -0.15,0.49 -0.22,1.19 -0.22,2.11 0,0.87 0.07,1.54 0.21,2.02 0.14,0.48 0.4,0.83 0.77,1.05 0.37,0.22 0.92,0.33 1.63,0.33 l 2.1,-0.16 0.05,1.1 c -1.14,0.17 -1.99,0.25 -2.56,0.25 -0.88,0 -1.58,-0.16 -2.11,-0.47 z"
   id="path847" />
		<path
   class="st0"
   d="m 59.32,79.72 c -0.43,-0.46 -0.64,-1.13 -0.64,-1.99 0,-0.85 0.22,-1.49 0.65,-1.9 0.43,-0.41 1.12,-0.67 2.07,-0.76 l 2.79,-0.27 v -0.76 c 0,-1.13 -0.49,-1.69 -1.46,-1.69 -0.96,0 -2.13,0.08 -3.5,0.23 l -0.05,-1.01 c 1.27,-0.26 2.43,-0.39 3.47,-0.39 1.01,0 1.74,0.23 2.2,0.69 0.46,0.46 0.69,1.18 0.69,2.18 v 4.55 c 0.04,0.44 0.38,0.7 1.03,0.78 l -0.05,1.05 c -0.94,0 -1.64,-0.24 -2.12,-0.71 -1.06,0.47 -2.12,0.71 -3.2,0.71 -0.83,-0.02 -1.45,-0.25 -1.88,-0.71 z m 4.46,-0.84 0.41,-0.14 V 75.8 l -2.63,0.25 c -0.53,0.05 -0.92,0.2 -1.16,0.46 -0.24,0.26 -0.36,0.64 -0.36,1.14 0,1.09 0.45,1.64 1.35,1.64 0.8,0 1.6,-0.14 2.39,-0.41 z"
   id="path849" />
		<path
   class="st0"
   d="m 68.09,67.46 h 1.33 v 12.77 h -1.33 z"
   id="path851" />
		<path
   class="st0"
   d="m 75.72,79.72 c -0.43,-0.46 -0.64,-1.13 -0.64,-1.99 0,-0.85 0.22,-1.49 0.65,-1.9 0.43,-0.41 1.12,-0.67 2.07,-0.76 l 2.79,-0.27 v -0.76 c 0,-1.13 -0.49,-1.69 -1.46,-1.69 -0.96,0 -2.13,0.08 -3.5,0.23 l -0.05,-1.01 c 1.27,-0.26 2.43,-0.39 3.47,-0.39 1.01,0 1.74,0.23 2.2,0.69 0.46,0.46 0.69,1.18 0.69,2.18 v 4.55 c 0.04,0.44 0.38,0.7 1.03,0.78 l -0.05,1.05 c -0.94,0 -1.64,-0.24 -2.12,-0.71 -1.06,0.47 -2.12,0.71 -3.2,0.71 -0.83,-0.02 -1.45,-0.25 -1.88,-0.71 z m 4.47,-0.84 0.41,-0.14 V 75.8 l -2.63,0.25 c -0.53,0.05 -0.92,0.2 -1.16,0.46 -0.24,0.26 -0.36,0.64 -0.36,1.14 0,1.09 0.45,1.64 1.35,1.64 0.8,0 1.59,-0.14 2.39,-0.41 z"
   id="path853" />
		<path
   class="st0"
   d="m 84.38,71.34 h 1.32 v 0.62 c 0.53,-0.3 1.02,-0.5 1.47,-0.62 0.44,-0.12 0.91,-0.18 1.4,-0.18 0.76,0 1.35,0.14 1.76,0.43 0.41,0.29 0.71,0.74 0.88,1.36 0.17,0.62 0.26,1.49 0.26,2.59 v 4.7 h -1.32 v -4.66 c 0,-0.84 -0.05,-1.49 -0.15,-1.94 -0.1,-0.45 -0.28,-0.78 -0.54,-0.98 -0.26,-0.2 -0.64,-0.3 -1.14,-0.3 -0.4,0 -0.82,0.05 -1.24,0.15 -0.42,0.1 -0.76,0.22 -1.02,0.35 l -0.34,0.16 v 7.22 h -1.33 v -8.9 z"
   id="path855" />
		<path
   class="st0"
   d="m 94.1,79.32 c -0.49,-0.73 -0.73,-1.85 -0.73,-3.37 0,-1.7 0.29,-2.92 0.88,-3.66 0.59,-0.75 1.56,-1.12 2.91,-1.12 0.68,0 1.38,0.08 2.12,0.23 v -3.93 h 1.32 v 12.77 h -1.32 v -0.6 c -0.91,0.52 -1.83,0.78 -2.76,0.78 -1.13,-0.01 -1.94,-0.37 -2.42,-1.1 z m 3.79,-0.25 c 0.4,-0.1 0.75,-0.22 1.03,-0.35 l 0.36,-0.16 v -6.03 c -0.77,-0.14 -1.44,-0.21 -2.01,-0.21 -0.94,0 -1.59,0.27 -1.97,0.82 -0.37,0.54 -0.56,1.45 -0.56,2.7 0,1.15 0.15,2 0.45,2.55 0.3,0.55 0.83,0.83 1.57,0.83 0.35,0 0.72,-0.05 1.13,-0.15 z"
   id="path857" />
		<path
   class="st0"
   d="m 105.88,67.92 h 1.42 l 2.83,11.1 h 1 l 2.83,-11.1 h 1.42 l -3.22,12.31 h -3.06 z"
   id="path859" />
		<path
   class="st0"
   d="m 117.49,79.94 c -0.56,-0.31 -0.95,-0.8 -1.19,-1.47 -0.24,-0.66 -0.36,-1.54 -0.36,-2.63 0,-1.13 0.12,-2.03 0.37,-2.71 0.25,-0.68 0.65,-1.18 1.21,-1.49 0.56,-0.31 1.3,-0.47 2.22,-0.47 0.94,0 1.68,0.16 2.23,0.48 0.55,0.32 0.95,0.82 1.2,1.49 0.25,0.68 0.37,1.58 0.37,2.7 0,1.09 -0.12,1.97 -0.36,2.63 -0.24,0.66 -0.63,1.15 -1.18,1.47 -0.55,0.31 -1.31,0.47 -2.27,0.47 -0.93,0 -1.68,-0.16 -2.24,-0.47 z m 3.77,-1.02 c 0.34,-0.22 0.58,-0.57 0.72,-1.05 0.14,-0.48 0.2,-1.16 0.2,-2.04 0,-0.92 -0.07,-1.64 -0.21,-2.13 -0.14,-0.5 -0.38,-0.85 -0.73,-1.07 -0.35,-0.22 -0.84,-0.32 -1.48,-0.32 -0.64,0 -1.14,0.11 -1.49,0.32 -0.35,0.21 -0.6,0.57 -0.75,1.07 -0.15,0.5 -0.22,1.21 -0.22,2.13 0,0.87 0.07,1.54 0.2,2.03 0.14,0.49 0.38,0.84 0.73,1.06 0.35,0.22 0.86,0.33 1.52,0.33 0.67,0 1.17,-0.11 1.51,-0.33 z"
   id="path861" />
		<path
   class="st0"
   d="m 126.64,79.94 c -0.52,-0.31 -0.9,-0.81 -1.12,-1.48 -0.23,-0.67 -0.34,-1.56 -0.34,-2.68 0,-1.41 0.24,-2.54 0.71,-3.38 0.47,-0.84 1.39,-1.26 2.76,-1.26 0.36,0 0.72,0.02 1.1,0.05 0.38,0.04 0.9,0.11 1.55,0.23 l -0.05,1.09 c -0.94,-0.11 -1.65,-0.16 -2.15,-0.16 -0.68,0 -1.19,0.1 -1.56,0.31 -0.36,0.21 -0.62,0.56 -0.76,1.05 -0.14,0.49 -0.22,1.19 -0.22,2.11 0,0.87 0.07,1.54 0.21,2.02 0.14,0.48 0.4,0.83 0.77,1.05 0.37,0.22 0.92,0.33 1.63,0.33 l 2.1,-0.16 0.05,1.1 c -1.14,0.17 -1.99,0.25 -2.56,0.25 -0.9,0 -1.6,-0.16 -2.12,-0.47 z"
   id="path863" />
		<path
   class="st0"
   d="m 133.2,79.72 c -0.43,-0.46 -0.64,-1.13 -0.64,-1.99 0,-0.85 0.22,-1.49 0.65,-1.9 0.43,-0.41 1.12,-0.67 2.07,-0.76 l 2.79,-0.27 v -0.76 c 0,-1.13 -0.49,-1.69 -1.46,-1.69 -0.96,0 -2.13,0.08 -3.5,0.23 l -0.05,-1.01 c 1.27,-0.26 2.43,-0.39 3.47,-0.39 1.01,0 1.74,0.23 2.2,0.69 0.46,0.46 0.68,1.18 0.68,2.18 v 4.55 c 0.04,0.44 0.38,0.7 1.03,0.78 l -0.05,1.05 c -0.94,0 -1.64,-0.24 -2.12,-0.71 -1.06,0.47 -2.12,0.71 -3.2,0.71 -0.82,-0.02 -1.44,-0.25 -1.87,-0.71 z m 4.47,-0.84 0.41,-0.14 V 75.8 l -2.63,0.25 c -0.53,0.05 -0.92,0.2 -1.16,0.46 -0.24,0.26 -0.36,0.64 -0.36,1.14 0,1.09 0.45,1.64 1.35,1.64 0.8,0 1.59,-0.14 2.39,-0.41 z"
   id="path865" />
		<path
   class="st0"
   d="m 143.28,80.13 c -0.34,-0.2 -0.58,-0.53 -0.73,-1 -0.15,-0.47 -0.22,-1.12 -0.22,-1.97 v -4.68 h -1.26 v -1.16 h 1.26 V 68.6 h 1.32 v 2.72 h 2.83 v 1.16 h -2.83 v 4.25 c 0,0.66 0.02,1.16 0.07,1.49 0.05,0.33 0.16,0.58 0.35,0.75 0.18,0.17 0.47,0.26 0.86,0.26 l 1.58,-0.11 0.09,1.1 c -0.84,0.13 -1.48,0.2 -1.9,0.2 -0.61,0.01 -1.08,-0.09 -1.42,-0.29 z"
   id="path867" />
		<path
   class="st0"
   d="m 147.93,67.78 h 1.32 v 1.55 h -1.32 z m 0,3.56 h 1.32 v 8.9 h -1.32 z"
   id="path869" />
		<path
   class="st0"
   d="m 152.68,79.94 c -0.56,-0.31 -0.95,-0.8 -1.19,-1.47 -0.24,-0.66 -0.36,-1.54 -0.36,-2.63 0,-1.13 0.12,-2.03 0.37,-2.71 0.25,-0.68 0.65,-1.18 1.21,-1.49 0.56,-0.31 1.3,-0.47 2.22,-0.47 0.94,0 1.68,0.16 2.23,0.48 0.55,0.32 0.95,0.82 1.2,1.49 0.25,0.68 0.37,1.58 0.37,2.7 0,1.09 -0.12,1.97 -0.36,2.63 -0.24,0.66 -0.63,1.15 -1.18,1.47 -0.55,0.31 -1.31,0.47 -2.27,0.47 -0.93,0 -1.68,-0.16 -2.24,-0.47 z m 3.77,-1.02 c 0.34,-0.22 0.58,-0.57 0.72,-1.05 0.14,-0.48 0.2,-1.16 0.2,-2.04 0,-0.92 -0.07,-1.64 -0.21,-2.13 -0.14,-0.5 -0.39,-0.85 -0.73,-1.07 -0.34,-0.21 -0.84,-0.32 -1.48,-0.32 -0.64,0 -1.14,0.11 -1.49,0.32 -0.35,0.21 -0.6,0.57 -0.75,1.07 -0.15,0.5 -0.22,1.21 -0.22,2.13 0,0.87 0.07,1.54 0.2,2.03 0.14,0.49 0.38,0.84 0.73,1.06 0.35,0.22 0.86,0.33 1.52,0.33 0.67,0 1.17,-0.11 1.51,-0.33 z"
   id="path871" />
		<path
   class="st0"
   d="m 160.74,71.34 h 1.32 v 0.62 c 0.53,-0.3 1.02,-0.5 1.47,-0.62 0.44,-0.12 0.91,-0.18 1.4,-0.18 0.76,0 1.35,0.14 1.76,0.43 0.42,0.29 0.71,0.74 0.88,1.36 0.17,0.62 0.26,1.49 0.26,2.59 v 4.7 h -1.32 v -4.66 c 0,-0.84 -0.05,-1.49 -0.15,-1.94 -0.1,-0.45 -0.28,-0.78 -0.54,-0.98 -0.26,-0.2 -0.64,-0.3 -1.14,-0.3 -0.4,0 -0.82,0.05 -1.24,0.15 -0.42,0.1 -0.76,0.22 -1.02,0.35 l -0.34,0.16 v 7.22 h -1.33 v -8.9 z"
   id="path873" />
		<path
   class="st0"
   d="m 170.19,79.72 c -0.43,-0.46 -0.64,-1.13 -0.64,-1.99 0,-0.85 0.22,-1.49 0.65,-1.9 0.43,-0.41 1.12,-0.67 2.07,-0.76 l 2.79,-0.27 v -0.76 c 0,-1.13 -0.49,-1.69 -1.46,-1.69 -0.96,0 -2.13,0.08 -3.5,0.23 l -0.05,-1.01 c 1.27,-0.26 2.43,-0.39 3.47,-0.39 1.01,0 1.74,0.23 2.2,0.69 0.46,0.46 0.69,1.18 0.69,2.18 v 4.55 c 0.04,0.44 0.38,0.7 1.03,0.78 l -0.05,1.05 c -0.94,0 -1.64,-0.24 -2.12,-0.71 -1.06,0.47 -2.12,0.71 -3.2,0.71 -0.83,-0.02 -1.46,-0.25 -1.88,-0.71 z m 4.46,-0.84 0.41,-0.14 V 75.8 l -2.63,0.25 c -0.53,0.05 -0.92,0.2 -1.16,0.46 -0.24,0.26 -0.36,0.64 -0.36,1.14 0,1.09 0.45,1.64 1.35,1.64 0.8,0 1.6,-0.14 2.39,-0.41 z"
   id="path875" />
		<path
   class="st0"
   d="m 178.96,67.46 h 1.33 v 12.77 h -1.33 z"
   id="path877" />
		<path
   class="st0"
   d="m 189.26,69.15 h -3.79 v -1.23 h 8.89 v 1.23 h -3.75 v 11.08 h -1.35 z"
   id="path879" />
		<path
   class="st0"
   d="m 194.17,71.34 h 1.32 v 1.21 c 1.02,-0.7 2.11,-1.17 3.26,-1.41 v 1.35 c -0.46,0.09 -0.96,0.24 -1.5,0.44 -0.54,0.2 -0.97,0.38 -1.29,0.54 l -0.44,0.23 v 6.53 h -1.33 v -8.89 z"
   id="path881" />
		<path
   class="st0"
   d="m 200.22,79.72 c -0.43,-0.46 -0.64,-1.13 -0.64,-1.99 0,-0.85 0.22,-1.49 0.65,-1.9 0.43,-0.41 1.12,-0.67 2.07,-0.76 l 2.79,-0.27 v -0.76 c 0,-1.13 -0.49,-1.69 -1.46,-1.69 -0.96,0 -2.13,0.08 -3.5,0.23 l -0.05,-1.01 c 1.27,-0.26 2.43,-0.39 3.47,-0.39 1.01,0 1.74,0.23 2.2,0.69 0.46,0.46 0.68,1.18 0.68,2.18 v 4.55 c 0.04,0.44 0.38,0.7 1.03,0.78 l -0.05,1.05 c -0.94,0 -1.64,-0.24 -2.12,-0.71 -1.06,0.47 -2.12,0.71 -3.2,0.71 -0.83,-0.02 -1.45,-0.25 -1.87,-0.71 z m 4.46,-0.84 0.41,-0.14 V 75.8 l -2.63,0.25 c -0.53,0.05 -0.92,0.2 -1.16,0.46 -0.24,0.26 -0.36,0.64 -0.36,1.14 0,1.09 0.45,1.64 1.35,1.64 0.8,0 1.6,-0.14 2.39,-0.41 z"
   id="path883" />
		<path
   class="st0"
   d="m 208.88,67.78 h 1.32 v 1.55 h -1.32 z m 0,3.56 h 1.32 v 8.9 h -1.32 z"
   id="path885" />
		<path
   class="st0"
   d="m 212.58,71.34 h 1.32 v 0.62 c 0.53,-0.3 1.02,-0.5 1.47,-0.62 0.44,-0.12 0.91,-0.18 1.4,-0.18 0.76,0 1.35,0.14 1.76,0.43 0.42,0.29 0.71,0.74 0.88,1.36 0.17,0.62 0.26,1.49 0.26,2.59 v 4.7 h -1.32 v -4.66 c 0,-0.84 -0.05,-1.49 -0.15,-1.94 -0.1,-0.45 -0.28,-0.78 -0.54,-0.98 -0.26,-0.2 -0.64,-0.3 -1.14,-0.3 -0.4,0 -0.82,0.05 -1.24,0.15 -0.42,0.1 -0.76,0.22 -1.02,0.35 l -0.34,0.16 v 7.22 h -1.33 v -8.9 z"
   id="path887" />
		<path
   class="st0"
   d="m 221.95,67.78 h 1.32 v 1.55 h -1.32 z m 0,3.56 h 1.32 v 8.9 h -1.32 z"
   id="path889" />
		<path
   class="st0"
   d="m 225.65,71.34 h 1.32 v 0.62 c 0.53,-0.3 1.02,-0.5 1.47,-0.62 0.44,-0.12 0.91,-0.18 1.4,-0.18 0.76,0 1.35,0.14 1.76,0.43 0.42,0.29 0.71,0.74 0.88,1.36 0.17,0.62 0.26,1.49 0.26,2.59 v 4.7 h -1.32 v -4.66 c 0,-0.84 -0.05,-1.49 -0.15,-1.94 -0.1,-0.45 -0.28,-0.78 -0.54,-0.98 -0.26,-0.2 -0.64,-0.3 -1.14,-0.3 -0.4,0 -0.82,0.05 -1.24,0.15 -0.42,0.1 -0.76,0.22 -1.02,0.35 l -0.34,0.16 v 7.22 h -1.33 v -8.9 z"
   id="path891" />
		<path
   class="st0"
   d="m 235.47,83.82 c -0.55,-0.4 -0.83,-1.06 -0.83,-1.98 0,-0.38 0.04,-0.69 0.13,-0.93 0.09,-0.24 0.23,-0.46 0.42,-0.65 0.19,-0.19 0.47,-0.43 0.85,-0.73 -0.17,-0.11 -0.29,-0.27 -0.37,-0.48 -0.08,-0.21 -0.12,-0.44 -0.12,-0.68 0,-0.15 0.04,-0.32 0.11,-0.51 0.07,-0.18 0.24,-0.51 0.5,-0.97 -0.94,-0.41 -1.41,-1.3 -1.41,-2.67 0,-1.03 0.28,-1.8 0.84,-2.3 0.56,-0.5 1.4,-0.76 2.53,-0.76 0.55,0 1.15,0.08 1.82,0.23 l 2.63,-0.07 v 1.14 l -1.69,-0.04 c 0.2,0.2 0.35,0.45 0.44,0.74 0.09,0.29 0.14,0.66 0.14,1.11 0,1.06 -0.27,1.81 -0.82,2.26 -0.55,0.45 -1.41,0.68 -2.58,0.68 -0.37,0 -0.67,-0.02 -0.91,-0.07 -0.1,0.24 -0.17,0.44 -0.23,0.62 -0.06,0.18 -0.09,0.33 -0.09,0.46 0,0.31 0.12,0.51 0.37,0.6 0.24,0.09 0.62,0.14 1.13,0.14 h 0.69 c 0.78,0 1.41,0.06 1.89,0.18 0.48,0.12 0.85,0.36 1.11,0.72 0.26,0.36 0.39,0.89 0.39,1.57 0,1.03 -0.32,1.78 -0.96,2.26 -0.64,0.47 -1.7,0.71 -3.17,0.71 -1.32,0.01 -2.26,-0.19 -2.81,-0.58 z m 5,-0.93 c 0.39,-0.27 0.59,-0.73 0.59,-1.38 0,-0.38 -0.07,-0.67 -0.2,-0.86 -0.13,-0.19 -0.35,-0.33 -0.66,-0.4 -0.31,-0.07 -0.75,-0.11 -1.33,-0.11 l -1.92,-0.09 c -0.39,0.28 -0.66,0.53 -0.79,0.75 -0.14,0.21 -0.2,0.5 -0.2,0.85 0,0.62 0.18,1.04 0.54,1.28 0.36,0.24 1,0.36 1.91,0.36 0.99,0 1.67,-0.13 2.06,-0.4 z m -0.81,-7.19 c 0.31,-0.3 0.46,-0.8 0.46,-1.51 0,-0.7 -0.15,-1.2 -0.46,-1.49 -0.31,-0.3 -0.82,-0.44 -1.53,-0.44 -0.74,0 -1.26,0.15 -1.57,0.45 -0.31,0.3 -0.47,0.8 -0.47,1.5 0,0.7 0.16,1.2 0.47,1.49 0.31,0.3 0.83,0.44 1.56,0.44 0.71,0 1.23,-0.15 1.54,-0.44 z"
   id="path893" />
		<path
   class="st0"
   d="m 249.26,79.71 c -0.68,-0.47 -1.14,-1.15 -1.39,-2.05 -0.25,-0.9 -0.37,-2.09 -0.37,-3.58 0,-1.47 0.12,-2.66 0.37,-3.57 0.25,-0.91 0.7,-1.59 1.36,-2.06 0.66,-0.47 1.6,-0.7 2.84,-0.7 0.96,0 2.07,0.13 3.33,0.39 l -0.05,1.16 c -1.2,-0.21 -2.23,-0.32 -3.1,-0.32 -0.93,0 -1.63,0.17 -2.1,0.5 -0.47,0.33 -0.8,0.87 -0.97,1.6 -0.17,0.74 -0.26,1.8 -0.26,3.2 0,1.21 0.08,2.16 0.24,2.84 0.16,0.68 0.49,1.2 0.99,1.55 0.5,0.35 1.25,0.52 2.26,0.52 0.82,0 1.8,-0.11 2.94,-0.32 l 0.05,1.17 c -1.22,0.25 -2.3,0.37 -3.24,0.37 -1.26,0 -2.22,-0.23 -2.9,-0.7 z"
   id="path895" />
		<path
   class="st0"
   d="m 258.21,79.94 c -0.56,-0.31 -0.95,-0.8 -1.19,-1.47 -0.24,-0.66 -0.36,-1.54 -0.36,-2.63 0,-1.13 0.12,-2.03 0.37,-2.71 0.25,-0.68 0.65,-1.18 1.21,-1.49 0.56,-0.31 1.3,-0.47 2.22,-0.47 0.94,0 1.68,0.16 2.23,0.48 0.55,0.32 0.95,0.82 1.2,1.49 0.25,0.68 0.37,1.58 0.37,2.7 0,1.09 -0.12,1.97 -0.36,2.63 -0.24,0.66 -0.63,1.15 -1.18,1.47 -0.55,0.31 -1.31,0.47 -2.27,0.47 -0.93,0 -1.68,-0.16 -2.24,-0.47 z m 3.77,-1.02 c 0.34,-0.22 0.58,-0.57 0.72,-1.05 0.14,-0.48 0.2,-1.16 0.2,-2.04 0,-0.92 -0.07,-1.64 -0.21,-2.13 -0.14,-0.5 -0.38,-0.85 -0.73,-1.07 -0.34,-0.21 -0.84,-0.32 -1.48,-0.32 -0.64,0 -1.14,0.11 -1.49,0.32 -0.35,0.21 -0.6,0.57 -0.75,1.07 -0.15,0.5 -0.22,1.21 -0.22,2.13 0,0.87 0.07,1.54 0.2,2.03 0.14,0.49 0.38,0.84 0.73,1.06 0.35,0.22 0.86,0.33 1.52,0.33 0.67,0 1.17,-0.11 1.51,-0.33 z"
   id="path897" />
		<path
   class="st0"
   d="m 266.27,71.34 h 1.32 v 1.21 c 1.02,-0.7 2.11,-1.17 3.26,-1.41 v 1.35 c -0.46,0.09 -0.96,0.24 -1.5,0.44 -0.54,0.2 -0.97,0.38 -1.29,0.54 l -0.44,0.23 v 6.53 h -1.33 v -8.89 z"
   id="path899" />
		<path
   class="st0"
   d="m 272.25,71.34 h 1.32 v 0.64 c 0.46,-0.27 0.91,-0.48 1.34,-0.61 0.43,-0.14 0.89,-0.2 1.38,-0.2 1.1,0 1.91,0.36 2.41,1.09 0.5,0.73 0.76,1.89 0.76,3.48 0,1.13 -0.13,2.03 -0.39,2.71 -0.26,0.68 -0.68,1.18 -1.25,1.49 -0.57,0.31 -1.33,0.47 -2.3,0.47 -0.66,0 -1.31,-0.07 -1.94,-0.2 v 3.97 h -1.33 z m 5.26,7.1 c 0.39,-0.55 0.59,-1.43 0.59,-2.65 0,-1.21 -0.17,-2.08 -0.51,-2.63 -0.34,-0.54 -0.85,-0.81 -1.54,-0.81 -0.34,0 -0.71,0.06 -1.11,0.17 -0.4,0.11 -0.74,0.23 -1.02,0.36 l -0.34,0.18 v 6 c 0.88,0.13 1.53,0.2 1.96,0.2 0.92,-0.01 1.58,-0.28 1.97,-0.82 z"
   id="path901" />
		<path
   class="st0"
   d="m 282.6,79.94 c -0.56,-0.31 -0.95,-0.8 -1.19,-1.47 -0.24,-0.66 -0.36,-1.54 -0.36,-2.63 0,-1.13 0.12,-2.03 0.37,-2.71 0.25,-0.68 0.65,-1.18 1.21,-1.49 0.56,-0.31 1.3,-0.47 2.22,-0.47 0.94,0 1.68,0.16 2.23,0.48 0.55,0.32 0.95,0.82 1.2,1.49 0.25,0.68 0.37,1.58 0.37,2.7 0,1.09 -0.12,1.97 -0.36,2.63 -0.24,0.66 -0.63,1.15 -1.18,1.47 -0.55,0.31 -1.31,0.47 -2.27,0.47 -0.93,0 -1.68,-0.16 -2.24,-0.47 z m 3.77,-1.02 c 0.34,-0.22 0.58,-0.57 0.72,-1.05 0.14,-0.48 0.2,-1.16 0.2,-2.04 0,-0.92 -0.07,-1.64 -0.21,-2.13 -0.14,-0.5 -0.39,-0.85 -0.73,-1.07 -0.34,-0.21 -0.84,-0.32 -1.48,-0.32 -0.64,0 -1.14,0.11 -1.49,0.32 -0.35,0.21 -0.6,0.57 -0.75,1.07 -0.15,0.5 -0.22,1.21 -0.22,2.13 0,0.87 0.07,1.54 0.2,2.03 0.14,0.49 0.38,0.84 0.73,1.06 0.35,0.22 0.86,0.33 1.52,0.33 0.67,0 1.17,-0.11 1.51,-0.33 z"
   id="path903" />
		<path
   class="st0"
   d="m 290.66,71.34 h 1.32 v 1.21 c 1.02,-0.7 2.11,-1.17 3.26,-1.41 v 1.35 c -0.46,0.09 -0.96,0.24 -1.5,0.44 -0.54,0.2 -0.97,0.38 -1.29,0.54 l -0.44,0.23 v 6.53 h -1.33 v -8.89 z"
   id="path905" />
		<path
   class="st0"
   d="m 296.71,79.72 c -0.43,-0.46 -0.64,-1.13 -0.64,-1.99 0,-0.85 0.22,-1.49 0.65,-1.9 0.43,-0.41 1.12,-0.67 2.07,-0.76 l 2.79,-0.27 v -0.76 c 0,-1.13 -0.49,-1.69 -1.46,-1.69 -0.96,0 -2.13,0.08 -3.5,0.23 l -0.05,-1.01 c 1.27,-0.26 2.43,-0.39 3.47,-0.39 1.01,0 1.74,0.23 2.2,0.69 0.46,0.46 0.68,1.18 0.68,2.18 v 4.55 c 0.04,0.44 0.38,0.7 1.03,0.78 l -0.05,1.05 c -0.94,0 -1.64,-0.24 -2.12,-0.71 -1.06,0.47 -2.12,0.71 -3.2,0.71 -0.82,-0.02 -1.44,-0.25 -1.87,-0.71 z m 4.46,-0.84 0.41,-0.14 V 75.8 l -2.63,0.25 c -0.53,0.05 -0.92,0.2 -1.16,0.46 -0.24,0.26 -0.36,0.64 -0.36,1.14 0,1.09 0.45,1.64 1.35,1.64 0.81,0 1.6,-0.14 2.39,-0.41 z"
   id="path907" />
		<path
   class="st0"
   d="m 306.79,80.13 c -0.34,-0.2 -0.58,-0.53 -0.73,-1 -0.15,-0.47 -0.22,-1.12 -0.22,-1.97 v -4.68 h -1.26 v -1.16 h 1.26 V 68.6 h 1.32 v 2.72 h 2.83 v 1.16 h -2.83 v 4.25 c 0,0.66 0.02,1.16 0.07,1.49 0.05,0.33 0.16,0.58 0.35,0.75 0.18,0.17 0.47,0.26 0.86,0.26 l 1.58,-0.11 0.09,1.1 c -0.84,0.13 -1.48,0.2 -1.9,0.2 -0.61,0.01 -1.08,-0.09 -1.42,-0.29 z"
   id="path909" />
		<path
   class="st0"
   d="m 311.44,67.78 h 1.32 v 1.55 h -1.32 z m 0,3.56 h 1.32 v 8.9 h -1.32 z"
   id="path911" />
		<path
   class="st0"
   d="m 316.19,79.94 c -0.56,-0.31 -0.95,-0.8 -1.19,-1.47 -0.24,-0.66 -0.36,-1.54 -0.36,-2.63 0,-1.13 0.12,-2.03 0.37,-2.71 0.25,-0.68 0.65,-1.18 1.21,-1.49 0.56,-0.31 1.3,-0.47 2.22,-0.47 0.94,0 1.68,0.16 2.23,0.48 0.55,0.32 0.95,0.82 1.2,1.49 0.25,0.68 0.37,1.58 0.37,2.7 0,1.09 -0.12,1.97 -0.36,2.63 -0.24,0.66 -0.63,1.15 -1.18,1.47 -0.55,0.31 -1.31,0.47 -2.27,0.47 -0.93,0 -1.68,-0.16 -2.24,-0.47 z m 3.77,-1.02 c 0.34,-0.22 0.58,-0.57 0.72,-1.05 0.14,-0.48 0.2,-1.16 0.2,-2.04 0,-0.92 -0.07,-1.64 -0.21,-2.13 -0.14,-0.5 -0.39,-0.85 -0.73,-1.07 -0.34,-0.21 -0.84,-0.32 -1.48,-0.32 -0.64,0 -1.14,0.11 -1.49,0.32 -0.35,0.21 -0.6,0.57 -0.75,1.07 -0.15,0.5 -0.22,1.21 -0.22,2.13 0,0.87 0.07,1.54 0.2,2.03 0.14,0.49 0.38,0.84 0.73,1.06 0.35,0.22 0.86,0.33 1.52,0.33 0.67,0 1.17,-0.11 1.51,-0.33 z"
   id="path913" />
		<path
   class="st0"
   d="m 324.25,71.34 h 1.32 v 0.62 c 0.53,-0.3 1.02,-0.5 1.47,-0.62 0.44,-0.12 0.91,-0.18 1.4,-0.18 0.76,0 1.35,0.14 1.76,0.43 0.42,0.29 0.71,0.74 0.88,1.36 0.17,0.62 0.26,1.49 0.26,2.59 v 4.7 h -1.32 v -4.66 c 0,-0.84 -0.05,-1.49 -0.15,-1.94 -0.1,-0.45 -0.28,-0.78 -0.54,-0.98 -0.26,-0.2 -0.64,-0.3 -1.14,-0.3 -0.4,0 -0.82,0.05 -1.24,0.15 -0.42,0.1 -0.76,0.22 -1.02,0.35 l -0.34,0.16 v 7.22 h -1.33 v -8.9 z"
   id="path915" />
	</g>
	<g
   id="g987">
		<g
   id="g985">
			<path
   class="st1"
   d="m 20.63,56.97 h -2.26 v 0.09 c 0,1.41 -0.36,2.5 -1.07,3.28 -0.72,0.78 -1.73,1.17 -3.05,1.17 H 9.33 C 8.45,61.51 7.63,61.35 6.86,61.02 6.1,60.7 5.48,60.23 5.02,59.61 4.56,58.99 4.32,58.27 4.32,57.46 c 0,-0.73 0.16,-2.04 0.48,-3.92 l 1.63,0.26 c -0.24,1.69 -0.37,2.8 -0.37,3.34 0,0.55 0.14,1.04 0.42,1.47 0.28,0.43 0.66,0.76 1.15,1 0.48,0.24 1.02,0.36 1.6,0.36 h 4.89 c 0.82,0 1.44,-0.25 1.85,-0.73 0.41,-0.49 0.62,-1.17 0.62,-2.03 v -0.22 h -0.33 c -0.45,0 -0.88,-0.04 -1.28,-0.13 -0.4,-0.09 -0.79,-0.25 -1.16,-0.49 l 0.73,-1.32 c 0.24,0.17 0.49,0.28 0.75,0.32 0.26,0.04 0.62,0.06 1.1,0.06 h 4.2 v 1.54 z M 9.39,62.83 h 1.56 v 1.76 H 9.39 Z m 2.46,0 h 1.54 v 1.76 h -1.54 z"
   id="path919" />
			<path
   class="st1"
   d="m 28.27,55.41 v 1.56 h -7.75 v -1.56 h 2.73 V 47.8 h 1.74 v 7.61 z M 23.28,44.3 h 1.67 v 1.8 h -1.67 z"
   id="path921" />
			<path
   class="st1"
   d="m 43.12,55.41 v 1.56 H 28.27 v -1.56 h 2.05 v -1.14 c 0,-0.61 0.16,-1.18 0.47,-1.71 0.31,-0.53 0.73,-0.96 1.26,-1.27 0.52,-0.32 1.11,-0.48 1.74,-0.48 0.63,0 1.22,0.16 1.74,0.47 0.53,0.31 0.94,0.73 1.25,1.26 0.3,0.53 0.46,1.11 0.46,1.73 v 1.14 h 2.4 v -2.29 c 0,-1.76 -0.46,-2.99 -1.37,-3.69 -0.91,-0.7 -2.02,-1.05 -3.33,-1.05 -0.84,0 -2.18,0.16 -4,0.49 l -0.13,-1.36 c 1.74,-0.46 3.23,-0.7 4.47,-0.7 1.17,0 2.22,0.22 3.13,0.66 0.91,0.44 1.63,1.13 2.16,2.07 0.53,0.94 0.8,2.13 0.8,3.56 v 2.31 z M 32.56,52.9 c -0.33,0.34 -0.49,0.76 -0.49,1.27 v 1.25 h 3.45 v -1.26 c 0,-0.49 -0.16,-0.9 -0.49,-1.25 -0.33,-0.34 -0.74,-0.51 -1.23,-0.51 -0.5,-0.02 -0.91,0.16 -1.24,0.5 z"
   id="path923" />
			<path
   class="st1"
   d="m 58.9,55.41 v 1.56 h -0.72 c -0.22,0 -0.45,-0.07 -0.7,-0.21 -0.24,-0.14 -0.45,-0.32 -0.62,-0.54 v 0.75 H 43.12 v -1.56 h 5.78 c -0.17,-1 -0.26,-1.99 -0.26,-2.95 0,-0.77 0.05,-1.55 0.16,-2.34 0.11,-0.79 0.23,-1.44 0.37,-1.97 0.33,-0.13 0.79,-0.26 1.37,-0.37 0.58,-0.11 1.21,-0.16 1.88,-0.16 1.59,0 2.73,0.37 3.42,1.12 0.69,0.75 1.04,1.96 1.04,3.65 v 2.27 c 0.13,0.22 0.31,0.4 0.54,0.54 0.23,0.14 0.49,0.21 0.78,0.21 z M 50.44,54.1 c 0.05,0.54 0.11,0.98 0.17,1.31 h 4.51 v -3.06 c 0,-1.12 -0.24,-1.93 -0.71,-2.43 -0.47,-0.49 -1.22,-0.74 -2.25,-0.74 -0.53,0 -1.04,0.05 -1.54,0.16 -0.18,1.13 -0.27,2.16 -0.27,3.12 0.01,0.55 0.04,1.09 0.09,1.64 z"
   id="path925" />
			<path
   class="st1"
   d="m 62.9,43.92 v 13.05 h -4 v -1.56 h 2.25 V 43.92 Z"
   id="path927" />
			<path
   class="st1"
   d="m 66.09,43.92 h 1.74 v 13.05 h -1.74 z"
   id="path929" />
			<path
   class="st1"
   d="m 76.16,47.57 c 0.73,0.08 1.32,0.17 1.79,0.27 v 7.84 c 0,1.85 -0.24,3.28 -0.72,4.3 -0.48,1.02 -1.38,1.53 -2.7,1.53 -0.51,0 -1.48,-0.1 -2.9,-0.29 v -1.56 c 1.2,0.2 2.12,0.29 2.77,0.29 0.42,0 0.75,-0.07 1.01,-0.22 0.26,-0.15 0.45,-0.44 0.59,-0.87 0.13,-0.43 0.2,-1.07 0.2,-1.9 h -2.51 c -1.42,0 -2.35,-0.43 -2.8,-1.3 -0.45,-0.87 -0.67,-1.94 -0.67,-3.23 0.01,-1.21 0.14,-2.17 0.39,-2.9 0.25,-0.72 0.67,-1.25 1.25,-1.59 0.58,-0.34 1.37,-0.5 2.37,-0.5 0.56,0.01 1.2,0.05 1.93,0.13 z m -3.77,6.99 c 0.29,0.57 0.91,0.85 1.85,0.85 h 1.96 v -6.27 c -0.6,-0.09 -1.13,-0.13 -1.59,-0.13 -0.99,0 -1.68,0.26 -2.06,0.78 -0.38,0.52 -0.58,1.38 -0.6,2.59 0,0.88 0.15,1.61 0.44,2.18 z"
   id="path931" />
			<path
   class="st1"
   d="M 100.05,56.97 H 97.8 v 0.09 c 0,1.41 -0.36,2.5 -1.07,3.28 -0.71,0.78 -1.73,1.17 -3.05,1.17 h -4.91 c -0.88,0 -1.7,-0.16 -2.47,-0.49 -0.76,-0.32 -1.38,-0.79 -1.84,-1.41 -0.46,-0.62 -0.7,-1.34 -0.7,-2.15 0,-0.73 0.16,-2.04 0.48,-3.92 l 1.63,0.26 c -0.24,1.69 -0.37,2.8 -0.37,3.34 0,0.55 0.14,1.04 0.42,1.47 0.28,0.43 0.66,0.76 1.15,1 0.48,0.24 1.02,0.36 1.6,0.36 h 4.89 c 0.82,0 1.44,-0.25 1.85,-0.73 0.42,-0.49 0.62,-1.17 0.62,-2.03 V 56.99 H 95.7 c -0.45,0 -0.88,-0.04 -1.28,-0.13 -0.4,-0.09 -0.79,-0.25 -1.15,-0.49 L 94,55.02 c 0.24,0.17 0.49,0.28 0.75,0.32 0.26,0.04 0.62,0.06 1.1,0.06 h 4.2 z m -11.23,5.86 h 1.56 v 1.76 h -1.56 z m 2.45,0 h 1.54 v 1.76 h -1.54 z"
   id="path933" />
			<path
   class="st1"
   d="m 107.15,55.41 v 1.56 h -7.2 v -1.56 h 2.73 V 47.8 h 1.74 v 7.61 z M 102.71,44.3 h 1.67 v 1.8 h -1.67 z"
   id="path935" />
			<path
   class="st1"
   d="m 118.53,55.41 v 1.56 h -11.38 v -1.56 h 2.38 c -0.28,-0.7 -0.42,-1.67 -0.42,-2.93 0,-1.21 0.15,-2.15 0.44,-2.81 0.29,-0.67 0.76,-1.14 1.4,-1.42 0.64,-0.28 1.54,-0.42 2.69,-0.42 0.95,0 1.81,0.04 2.58,0.13 l 0.64,0.07 v 7.39 h 1.67 z m -7.51,-1 c 0.11,0.41 0.25,0.74 0.42,1 h 3.68 v -5.99 c -0.76,-0.06 -1.29,-0.09 -1.59,-0.09 -0.73,0 -1.29,0.1 -1.67,0.31 -0.38,0.21 -0.64,0.54 -0.79,1.01 -0.15,0.46 -0.22,1.12 -0.22,1.96 0,0.79 0.06,1.39 0.17,1.8 z m 0.12,-10.09 h 1.56 v 1.78 h -1.56 z m 2.46,0 h 1.54 v 1.78 h -1.54 z"
   id="path937" />
			<path
   class="st1"
   d="m 125.73,55.41 v 1.56 h -7.2 v -1.56 h 2.73 V 47.8 H 123 v 7.61 z m -5.6,-11.09 h 1.56 v 1.78 h -1.56 z m 2.45,0 h 1.54 v 1.78 h -1.54 z"
   id="path939" />
			<path
   class="st1"
   d="m 129.73,43.92 v 13.05 h -4 v -1.56 h 2.25 V 43.92 Z"
   id="path941" />
			<path
   class="st1"
   d="m 132.92,43.92 h 1.74 v 13.05 h -1.74 z"
   id="path943" />
			<path
   class="st1"
   d="m 156.09,55.41 v 1.56 h -9.86 c -1.12,0 -2.04,-0.09 -2.75,-0.27 -0.71,-0.18 -1.24,-0.5 -1.6,-0.96 -0.36,-0.46 -0.54,-1.1 -0.54,-1.92 0,-0.51 0.06,-1.14 0.17,-1.89 0.12,-0.75 0.25,-1.46 0.39,-2.13 l 1.37,0.07 -0.16,1.36 c -0.15,1.03 -0.22,1.75 -0.22,2.18 0,0.71 0.24,1.22 0.71,1.53 0.47,0.31 1.32,0.47 2.54,0.47 h 5.52 V 47.8 h 1.74 v 7.61 z m -9.22,3.02 h 1.67 v 1.8 h -1.67 z"
   id="path945" />
			<path
   class="st1"
   d="m 160.56,47.8 v 9.17 h -4.47 v -1.56 h 2.73 V 47.8 Z m -2.88,10.63 h 1.56 v 1.76 h -1.56 z m 2.46,0 h 1.54 v 1.76 h -1.54 z"
   id="path947" />
			<path
   class="st1"
   d="m 163.15,61.48 -0.44,-0.04 V 59.9 c 0.4,0.04 0.73,0.05 0.99,0.05 0.55,0 0.97,-0.22 1.25,-0.66 0.28,-0.44 0.42,-1.06 0.42,-1.85 v -9.62 h 1.72 v 9.26 c 0,1.44 -0.25,2.54 -0.75,3.31 -0.5,0.76 -1.26,1.15 -2.27,1.15 -0.29,-0.01 -0.59,-0.03 -0.92,-0.06 z"
   id="path949" />
			<path
   class="st1"
   d="m 178.53,55.41 v 1.56 h -9.46 v -1.56 h 5.94 v -1.69 c 0,-1.74 -0.34,-2.96 -1.01,-3.68 -0.67,-0.71 -1.46,-1.07 -2.36,-1.07 h -1.59 l -0.13,-1.3 c 0.18,-0.06 0.48,-0.12 0.9,-0.18 0.42,-0.06 0.81,-0.09 1.17,-0.09 0.88,0 1.68,0.21 2.39,0.63 0.71,0.42 1.29,1.1 1.71,2.03 0.43,0.93 0.64,2.12 0.64,3.58 v 1.78 h 1.8 z"
   id="path951" />
			<path
   class="st1"
   d="m 185.73,55.41 v 1.56 h -7.2 v -1.56 h 2.73 V 47.8 H 183 v 7.61 z m -5.61,-11.09 h 1.56 v 1.78 h -1.56 z m 2.46,0 h 1.54 v 1.78 h -1.54 z"
   id="path953" />
			<path
   class="st1"
   d="m 191.93,55.41 v 1.56 h -6.2 v -1.56 h 2.25 V 43.92 h 1.74 v 11.49 z"
   id="path955" />
			<path
   class="st1"
   d="m 195.92,43.92 v 13.05 h -4 v -1.56 h 2.25 V 43.92 Z"
   id="path957" />
			<path
   class="st1"
   d="m 213.01,55.41 v 1.56 h -6.21 c -1.12,0 -2.01,-0.15 -2.66,-0.44 -0.65,-0.29 -1.12,-0.78 -1.41,-1.45 -0.29,-0.67 -0.44,-1.6 -0.44,-2.79 0,-1.16 0.14,-2.08 0.42,-2.76 0.28,-0.68 0.74,-1.17 1.37,-1.47 0.64,-0.3 1.51,-0.45 2.62,-0.45 0.54,0 1.28,0.02 2.22,0.07 0.94,0.05 1.63,0.1 2.05,0.15 v 7.57 h 2.04 z m -8.7,-1.27 c 0.19,0.45 0.5,0.78 0.93,0.97 0.43,0.2 1.01,0.29 1.76,0.29 h 2.25 v -6.1 c -0.98,-0.07 -1.75,-0.11 -2.33,-0.11 -0.72,0 -1.29,0.1 -1.71,0.3 -0.42,0.2 -0.72,0.53 -0.91,0.97 -0.18,0.45 -0.27,1.05 -0.27,1.81 -0.01,0.8 0.09,1.42 0.28,1.87 z m 0.81,-9.82 h 1.56 v 1.78 h -1.56 z m 2.46,0 h 1.54 v 1.78 h -1.54 z"
   id="path959" />
			<path
   class="st1"
   d="m 222.91,48.74 c 0.69,0.75 1.04,1.96 1.04,3.65 v 4.58 h -10.94 v -1.56 h 2.97 c -0.17,-1 -0.26,-1.99 -0.26,-2.95 0,-0.77 0.05,-1.55 0.16,-2.34 0.11,-0.79 0.23,-1.44 0.37,-1.97 0.33,-0.13 0.79,-0.26 1.37,-0.37 0.58,-0.11 1.21,-0.16 1.88,-0.16 1.58,0 2.72,0.37 3.41,1.12 z m -5.39,5.36 c 0.05,0.54 0.11,0.98 0.17,1.31 h 4.51 v -3.06 c 0,-1.12 -0.24,-1.93 -0.71,-2.43 -0.47,-0.49 -1.22,-0.74 -2.25,-0.74 -0.53,0 -1.04,0.05 -1.54,0.16 -0.18,1.13 -0.27,2.16 -0.27,3.12 0.01,0.55 0.04,1.09 0.09,1.64 z"
   id="path961" />
			<path
   class="st1"
   d="m 230.05,55.41 v 1.56 h -3.48 V 43.92 h 1.74 v 11.49 z"
   id="path963" />
			<path
   class="st1"
   d="m 241.58,55.41 v 1.56 h -2.07 c -0.6,0 -1.21,-0.07 -1.84,-0.22 -0.63,-0.15 -1.22,-0.35 -1.77,-0.6 -0.53,0.26 -1.1,0.46 -1.72,0.6 -0.62,0.15 -1.23,0.22 -1.82,0.22 h -2.31 v -1.56 h 2.25 c 0.62,0 1.27,-0.12 1.93,-0.35 -0.89,-0.71 -1.6,-1.5 -2.14,-2.37 -0.53,-0.87 -0.81,-1.67 -0.83,-2.39 l -0.05,-1.39 c 0.73,-0.4 1.5,-0.72 2.3,-0.95 0.8,-0.23 1.59,-0.35 2.37,-0.35 0.78,0 1.58,0.12 2.39,0.35 0.81,0.23 1.59,0.55 2.34,0.95 l -0.07,1.39 c -0.02,0.72 -0.3,1.52 -0.83,2.39 -0.53,0.87 -1.25,1.66 -2.15,2.37 0.67,0.23 1.32,0.35 1.94,0.35 z m -7.83,-3.17 c 0.52,0.8 1.24,1.48 2.15,2.05 0.93,-0.59 1.66,-1.27 2.18,-2.06 0.52,-0.79 0.79,-1.6 0.79,-2.45 -1.12,-0.4 -2.11,-0.6 -2.97,-0.6 -0.84,0 -1.82,0.2 -2.93,0.6 0,0.84 0.26,1.66 0.78,2.46 z"
   id="path965" />
			<path
   class="st1"
   d="m 245.58,43.92 v 13.05 h -4 v -1.56 h 2.25 V 43.92 Z"
   id="path967" />
			<path
   class="st1"
   d="m 248.77,43.92 h 1.74 v 13.05 h -1.74 z"
   id="path969" />
			<path
   class="st1"
   d="m 267.65,55.41 v 1.56 h -6.21 c -1.12,0 -2.01,-0.15 -2.66,-0.44 -0.65,-0.29 -1.12,-0.78 -1.41,-1.45 -0.29,-0.67 -0.44,-1.6 -0.44,-2.79 0,-1.16 0.14,-2.08 0.42,-2.76 0.28,-0.68 0.74,-1.17 1.37,-1.47 0.64,-0.3 1.51,-0.45 2.62,-0.45 0.54,0 1.28,0.02 2.22,0.07 0.94,0.05 1.63,0.1 2.05,0.15 v 7.57 h 2.04 z m -8.7,-1.27 c 0.19,0.45 0.5,0.78 0.93,0.97 0.43,0.2 1.01,0.29 1.76,0.29 h 2.25 v -6.1 c -0.98,-0.07 -1.75,-0.11 -2.33,-0.11 -0.72,0 -1.29,0.1 -1.71,0.3 -0.42,0.2 -0.72,0.53 -0.91,0.97 -0.18,0.45 -0.27,1.05 -0.27,1.81 0,0.8 0.09,1.42 0.28,1.87 z m 0.82,-9.82 h 1.56 v 1.78 h -1.56 z m 2.45,0 h 1.54 v 1.78 h -1.54 z"
   id="path971" />
			<path
   class="st1"
   d="m 283.39,55.41 v 1.56 h -5.21 c -0.76,0 -1.44,-0.24 -2.03,-0.73 -0.45,0.49 -1.05,0.73 -1.78,0.73 h -6.73 v -1.56 h 2.91 v -6.69 h 1.74 v 6.69 h 1.5 c 0.54,0 0.93,-0.23 1.18,-0.68 0.25,-0.45 0.38,-1.02 0.38,-1.7 v -4.31 h 1.74 v 4.29 c 0,0.7 -0.08,1.32 -0.24,1.87 0.17,0.13 0.38,0.26 0.62,0.37 0.24,0.11 0.49,0.16 0.73,0.16 h 1.76 v -3.54 c 0,-0.86 -0.1,-2.19 -0.29,-4.01 l 1.47,-0.05 c 0.15,0.72 0.28,1.48 0.39,2.26 0.12,0.79 0.17,1.39 0.17,1.81 v 3.54 h 1.69 z"
   id="path973" />
			<path
   class="st1"
   d="m 297.3,50.06 c 0.12,0.79 0.17,1.39 0.17,1.81 v 5.1 h -3.54 c -0.76,0 -1.44,-0.24 -2.03,-0.73 -0.45,0.49 -1.05,0.73 -1.78,0.73 h -6.73 v -1.56 h 2.91 v -6.69 h 1.74 v 6.69 h 1.5 c 0.54,0 0.93,-0.23 1.18,-0.68 0.25,-0.45 0.38,-1.02 0.38,-1.7 v -4.31 h 1.74 v 4.29 c 0,0.7 -0.08,1.32 -0.24,1.87 0.17,0.13 0.38,0.26 0.62,0.37 0.24,0.11 0.49,0.16 0.73,0.16 h 1.76 v -3.54 c 0,-0.86 -0.1,-2.19 -0.29,-4.01 l 1.47,-0.05 c 0.16,0.71 0.29,1.47 0.41,2.25 z"
   id="path975" />
			<path
   class="st1"
   d="m 309.42,56.97 h -2.29 c -0.09,1.44 -0.38,2.56 -0.89,3.35 -0.51,0.8 -1.34,1.19 -2.5,1.19 -0.51,0 -1.48,-0.1 -2.9,-0.29 v -1.56 c 1.2,0.2 2.12,0.29 2.77,0.29 0.41,0 0.75,-0.07 1.01,-0.22 0.26,-0.15 0.45,-0.44 0.59,-0.87 0.13,-0.43 0.2,-1.07 0.2,-1.9 h -2.51 c -1.42,0 -2.35,-0.43 -2.8,-1.3 -0.45,-0.87 -0.67,-1.94 -0.67,-3.23 0.01,-1.21 0.14,-2.17 0.39,-2.9 0.25,-0.72 0.67,-1.25 1.25,-1.59 0.58,-0.34 1.37,-0.5 2.37,-0.5 0.56,0 1.21,0.04 1.93,0.12 0.73,0.08 1.32,0.17 1.79,0.27 v 7.57 h 2.25 v 1.57 z m -7.81,-2.41 c 0.29,0.57 0.91,0.85 1.85,0.85 h 1.96 v -6.27 c -0.6,-0.09 -1.13,-0.13 -1.59,-0.13 -0.99,0 -1.68,0.26 -2.06,0.78 -0.38,0.52 -0.58,1.38 -0.6,2.59 0,0.88 0.15,1.61 0.44,2.18 z m 4.09,-9.4 -3.83,0.75 -0.18,-0.66 0.88,-0.24 c -0.22,-0.17 -0.39,-0.38 -0.5,-0.61 -0.11,-0.24 -0.16,-0.49 -0.16,-0.74 0,-0.46 0.16,-0.87 0.5,-1.21 0.33,-0.34 0.76,-0.51 1.28,-0.51 0.46,0 0.92,0.15 1.36,0.44 l -0.2,0.82 c -0.07,-0.06 -0.18,-0.12 -0.33,-0.18 -0.15,-0.06 -0.31,-0.09 -0.48,-0.09 -0.31,0 -0.56,0.1 -0.75,0.3 -0.2,0.2 -0.29,0.44 -0.29,0.72 0,0.34 0.15,0.62 0.44,0.84 l 2.05,-0.55 z"
   id="path977" />
			<path
   class="st1"
   d="m 322.4,55.41 v 1.56 h -0.71 c -0.22,0 -0.45,-0.07 -0.7,-0.21 -0.24,-0.14 -0.45,-0.32 -0.62,-0.54 v 0.75 h -10.94 v -1.56 h 2.97 c -0.17,-1 -0.26,-1.99 -0.26,-2.95 0,-0.77 0.05,-1.55 0.16,-2.34 0.11,-0.79 0.23,-1.44 0.37,-1.97 0.33,-0.13 0.79,-0.26 1.37,-0.37 0.58,-0.11 1.21,-0.16 1.88,-0.16 1.59,0 2.73,0.37 3.42,1.12 0.69,0.75 1.04,1.96 1.04,3.65 v 2.27 c 0.13,0.22 0.31,0.4 0.54,0.54 0.23,0.14 0.49,0.21 0.78,0.21 z m -8.46,-1.31 c 0.05,0.54 0.11,0.98 0.17,1.31 h 4.51 v -3.06 c 0,-1.12 -0.24,-1.93 -0.71,-2.43 -0.47,-0.49 -1.22,-0.74 -2.25,-0.74 -0.53,0 -1.04,0.05 -1.54,0.16 -0.18,1.13 -0.27,2.16 -0.27,3.12 0.01,0.55 0.04,1.09 0.09,1.64 z"
   id="path979" />
			<path
   class="st1"
   d="m 326.4,43.92 v 13.05 h -4 v -1.56 h 2.25 V 43.92 Z"
   id="path981" />
			<path
   class="st1"
   d="m 329.59,43.92 h 1.74 v 13.05 h -1.74 z"
   id="path983" />
		</g>
	</g>
</g>
<g
   id="g1029">
	<g
   id="g1007">
		<path
   class="st2"
   d="M408.5,8.49L408.5,8.49c0.02-1.17-0.66-2.29-1.81-2.76c-1.15-0.47-2.42-0.15-3.22,0.71l-0.01-0.01l-8.18,9.83    l2.93,10.19l9.23-5.22L408.5,8.49z"
   id="path991" />
		<path
   class="st3"
   d="M431.13,33.79L431.13,33.79c0.84-0.81,1.15-2.09,0.67-3.23c-0.48-1.14-1.61-1.81-2.78-1.77l0-0.01    l-12.73,1.17l-5.13,9.28l10.21,2.84L431.13,33.79z"
   id="path993" />
		<path
   class="st4"
   d="M429.25,67.68L429.25,67.68c1.17,0.02,2.29-0.66,2.76-1.81c0.47-1.15,0.15-2.42-0.71-3.22l0.01,0l-9.83-8.18    l-10.19,2.93l5.22,9.23L429.25,67.68z"
   id="path995" />
		<path
   class="st5"
   d="M403.95,90.31L403.95,90.31c0.81,0.84,2.09,1.15,3.23,0.67c1.14-0.48,1.81-1.61,1.77-2.78l0.01,0l-1.17-12.73    l-9.28-5.13l-1.78,11.46L403.95,90.31z"
   id="path997" />
		<path
   class="st4"
   d="M374.92,90.31L374.92,90.31c-0.81,0.84-2.09,1.15-3.23,0.67c-1.14-0.48-1.81-1.61-1.77-2.78l-0.01,0    l1.17-12.73l9.28-5.13l1.78,11.46L374.92,90.31z"
   id="path999" />
		<path
   class="st2"
   d="M347.42,63.12L347.42,63.12c-0.84,0.81-1.15,2.09-0.67,3.23c0.48,1.14,1.61,1.81,2.78,1.77l0,0.01l12.73-1.17    l5.13-9.28l-10.21-2.84L347.42,63.12z"
   id="path1001" />
		<path
   class="st6"
   d="M349.31,29.23L349.31,29.23c-1.17-0.02-2.29,0.66-2.76,1.81c-0.47,1.15-0.15,2.42,0.71,3.22l-0.01,0    l9.83,8.18l10.19-2.93l-5.22-9.23L349.31,29.23z"
   id="path1003" />
		<path
   class="st4"
   d="M374.61,6.6L374.61,6.6c-0.81-0.84-2.09-1.15-3.23-0.67c-1.14,0.48-1.81,1.61-1.77,2.78l-0.01,0l1.17,12.73    l9.28,5.13l2.84-10.21L374.61,6.6z"
   id="path1005" />
	</g>
	<path
   class="st0"
   d="M416.25,21.38c-0.25-0.25-0.63-0.27-0.92-0.08l-17.7,10.38l-2.98,5.21c0.32,0.15,0.65,0.29,0.95,0.47l3.98-2.7   c0.43-0.34,1.06-0.31,1.45,0.09l1.85,1.85c0.39,0.39,0.43,1.01,0.09,1.45l-2.7,3.98c0.18,0.3,0.32,0.63,0.47,0.94l5.2-2.97l0.01,0   l10.38-17.7C416.52,22.02,416.5,21.63,416.25,21.38z"
   id="path1009" />
	<path
   class="st0"
   d="M344.58,89.57c0.11-0.25,0.38-0.49,0.79-0.44l38.81,13.41l1.25,8.04l-12.34-5.9l-28.3-14.26   C344.48,90.17,344.48,89.82,344.58,89.57z"
   id="path1011" />
	<path
   class="st0"
   d="M433.97,89.57c-0.11-0.25-0.38-0.49-0.79-0.44l-38.81,13.41l-1.25,8.04l12.34-5.9l28.3-14.26   C434.08,90.17,434.08,89.82,433.97,89.57z"
   id="path1013" />
	<path
   class="st0"
   d="M426.84,47.65l-19.86-5.17l-5.78,1.58c0.12,0.33,0.25,0.66,0.34,1.01l4.73,0.9c0.55,0.06,0.96,0.53,0.96,1.08   v2.62c0,0.55-0.41,1.02-0.96,1.08l-4.73,0.9c-0.09,0.34-0.22,0.67-0.34,1l5.78,1.58v0.01l19.86-5.17c0.33-0.07,0.59-0.35,0.59-0.71   C427.43,48,427.17,47.72,426.84,47.65z"
   id="path1015" />
	<path
   class="st0"
   d="M416.34,74.42l-10.38-17.7l-5.21-2.98c-0.15,0.32-0.29,0.65-0.47,0.95l2.7,3.98c0.34,0.43,0.31,1.06-0.09,1.45   l-1.85,1.85c-0.39,0.39-1.01,0.43-1.45,0.09l-3.98-2.7c-0.3,0.18-0.63,0.32-0.94,0.47l2.97,5.2l-0.01,0l17.7,10.38   c0.29,0.19,0.67,0.17,0.92-0.08C416.5,75.08,416.52,74.7,416.34,74.42z"
   id="path1017" />
	<path
   class="st0"
   d="M392.57,60.62l-0.9,4.73c-0.06,0.55-0.53,0.96-1.08,0.96h-2.62c-0.55,0-1.02-0.41-1.08-0.96l-0.9-4.73   c-0.34-0.09-0.67-0.22-1-0.34l-1.58,5.78h-0.01l5.17,43.93c0.07,0.33,0.35,0.59,0.71,0.59c0.35,0,0.64-0.26,0.71-0.59l5.17-43.93   l-1.58-5.78C393.25,60.4,392.92,60.53,392.57,60.62z"
   id="path1019" />
	<path
   class="st0"
   d="M382.94,59.36l-3.98,2.7c-0.43,0.34-1.06,0.31-1.45-0.09l-1.85-1.85c-0.39-0.39-0.43-1.01-0.09-1.45l2.7-3.98   c-0.18-0.3-0.32-0.63-0.47-0.94l-5.2,2.97l-0.01,0l-10.38,17.7c-0.19,0.29-0.17,0.67,0.08,0.92c0.25,0.25,0.63,0.27,0.92,0.08   l17.7-10.38l2.98-5.21C383.57,59.68,383.25,59.54,382.94,59.36z"
   id="path1021" />
	<path
   class="st0"
   d="M377.02,51.66l-4.73-0.9c-0.55-0.06-0.96-0.53-0.96-1.08v-2.62c0-0.55,0.41-1.02,0.96-1.08l4.73-0.9   c0.09-0.34,0.22-0.67,0.34-1l-5.78-1.58v-0.01l-19.86,5.17c-0.33,0.07-0.59,0.35-0.59,0.71c0,0.35,0.26,0.64,0.59,0.71l19.86,5.17   l5.78-1.58C377.24,52.33,377.11,52,377.02,51.66z"
   id="path1023" />
	<path
   class="st0"
   d="M377.81,42.98c0.15-0.32,0.29-0.65,0.47-0.95l-2.7-3.98c-0.34-0.43-0.31-1.06,0.09-1.45l1.85-1.85   c0.39-0.39,1.01-0.43,1.45-0.09l3.98,2.7c0.3-0.18,0.63-0.32,0.94-0.47l-2.97-5.2l0,0l-17.7-10.38c-0.29-0.19-0.67-0.17-0.92,0.08   c-0.25,0.25-0.27,0.63-0.08,0.92L372.6,40L377.81,42.98z"
   id="path1025" />
	<path
   class="st0"
   d="M385.98,36.1l0.9-4.73c0.06-0.55,0.53-0.96,1.08-0.96h2.62c0.55,0,1.02,0.41,1.08,0.96l0.9,4.73   c0.34,0.09,0.67,0.22,1,0.34l1.58-5.78h0.01l-5.18-19.86c-0.07-0.33-0.35-0.59-0.71-0.59c-0.35,0-0.64,0.26-0.71,0.59l-5.17,19.86   l1.58,5.78C385.31,36.32,385.64,36.19,385.98,36.1z"
   id="path1027" />
</g>
<text
   xml:space="preserve"
   style="font-style:normal;font-variant:normal;font-weight:normal;font-stretch:normal;font-size:20px;line-height:1.25;font-family:Cairo;-inkscape-font-specification:Cairo;font-variant-ligatures:normal;font-variant-caps:normal;font-variant-numeric:normal;font-variant-east-asian:normal;fill:#404041;fill-opacity:1;stroke:none"
   x="165.8125"
   y="73.250175"
   id="text1040"><tspan
     sodipodi:role="line"
     id="tspan1038"
     x="165.8125"
     y="73.250175">الكلية التقنية ببريدة</tspan></text><text
   xml:space="preserve"
   style="font-style:normal;font-variant:normal;font-weight:normal;font-stretch:normal;font-size:20px;line-height:1.25;font-family:Cairo;-inkscape-font-specification:'Cairo, Normal';font-variant-ligatures:normal;font-variant-caps:normal;font-variant-numeric:normal;font-variant-east-asian:normal;fill:#404041;fill-opacity:1;stroke:none"
   x="17.707813"
   y="99.288284"
   id="text1044"><tspan
     sodipodi:role="line"
     id="tspan1042"
     x="17.707813"
     y="99.288284">مركز خدمة المجتمع والتدريب المستمر</tspan></text></svg>
